<mxfile host="Electron" modified="2023-11-30T02:30:30.880Z" agent="Mozilla/5.0 (Windows NT 10.0; Win64; x64) AppleWebKit/537.36 (KHTML, like Gecko) draw.io/21.5.1 Chrome/112.0.5615.204 Electron/24.6.0 Safari/537.36" etag="zWDiI11E4jFcRWHsnH9R" version="21.5.1" type="device">
  <diagram name="第 1 页" id="E1XPysd1mITqSF8aUE2H">
    <mxGraphModel dx="546" dy="1189" grid="1" gridSize="10" guides="1" tooltips="1" connect="1" arrows="1" fold="1" page="1" pageScale="1" pageWidth="1169" pageHeight="827" math="0" shadow="0">
      <root>
        <mxCell id="0" />
        <mxCell id="1" parent="0" />
        <mxCell id="CWYVo6-NOkt-uVapPHjS-1" value="task_mng" style="rounded=1;whiteSpace=wrap;html=1;" vertex="1" parent="1">
          <mxGeometry x="120" y="40" width="120" height="40" as="geometry" />
        </mxCell>
        <mxCell id="CWYVo6-NOkt-uVapPHjS-2" value="para_mng" style="rounded=1;whiteSpace=wrap;html=1;" vertex="1" parent="1">
          <mxGeometry x="120" y="120" width="120" height="40" as="geometry" />
        </mxCell>
        <mxCell id="CWYVo6-NOkt-uVapPHjS-3" value="sys_mng" style="rounded=1;whiteSpace=wrap;html=1;" vertex="1" parent="1">
          <mxGeometry x="120" y="200" width="120" height="40" as="geometry" />
        </mxCell>
        <mxCell id="CWYVo6-NOkt-uVapPHjS-4" value="stor_mng" style="rounded=1;whiteSpace=wrap;html=1;" vertex="1" parent="1">
          <mxGeometry x="120" y="280" width="120" height="40" as="geometry" />
        </mxCell>
        <mxCell id="CWYVo6-NOkt-uVapPHjS-5" value="med_mng" style="rounded=1;whiteSpace=wrap;html=1;" vertex="1" parent="1">
          <mxGeometry x="120" y="360" width="120" height="40" as="geometry" />
        </mxCell>
        <mxCell id="CWYVo6-NOkt-uVapPHjS-6" value="dev_mng" style="rounded=1;whiteSpace=wrap;html=1;" vertex="1" parent="1">
          <mxGeometry x="120" y="440" width="120" height="40" as="geometry" />
        </mxCell>
        <mxCell id="CWYVo6-NOkt-uVapPHjS-7" value="algo_mng" style="rounded=1;whiteSpace=wrap;html=1;" vertex="1" parent="1">
          <mxGeometry x="120" y="520" width="120" height="40" as="geometry" />
        </mxCell>
        <mxCell id="CWYVo6-NOkt-uVapPHjS-8" value="cloud_mng" style="rounded=1;whiteSpace=wrap;html=1;" vertex="1" parent="1">
          <mxGeometry x="120" y="600" width="120" height="40" as="geometry" />
        </mxCell>
        <mxCell id="CWYVo6-NOkt-uVapPHjS-9" value="iot_mng" style="rounded=1;whiteSpace=wrap;html=1;" vertex="1" parent="1">
          <mxGeometry x="120" y="680" width="120" height="40" as="geometry" />
        </mxCell>
        <mxCell id="CWYVo6-NOkt-uVapPHjS-10" value="web_mng" style="rounded=1;whiteSpace=wrap;html=1;" vertex="1" parent="1">
          <mxGeometry x="120" y="760" width="120" height="40" as="geometry" />
        </mxCell>
        <mxCell id="CWYVo6-NOkt-uVapPHjS-21" style="edgeStyle=orthogonalEdgeStyle;rounded=0;orthogonalLoop=1;jettySize=auto;html=1;exitX=0.5;exitY=1;exitDx=0;exitDy=0;entryX=0.5;entryY=0;entryDx=0;entryDy=0;" edge="1" parent="1" source="CWYVo6-NOkt-uVapPHjS-11" target="CWYVo6-NOkt-uVapPHjS-12">
          <mxGeometry relative="1" as="geometry" />
        </mxCell>
        <mxCell id="CWYVo6-NOkt-uVapPHjS-11" value="start" style="ellipse;whiteSpace=wrap;html=1;" vertex="1" parent="1">
          <mxGeometry x="640" y="-80" width="120" height="40" as="geometry" />
        </mxCell>
        <mxCell id="CWYVo6-NOkt-uVapPHjS-22" style="edgeStyle=orthogonalEdgeStyle;rounded=0;orthogonalLoop=1;jettySize=auto;html=1;exitX=0.5;exitY=1;exitDx=0;exitDy=0;entryX=0.5;entryY=0;entryDx=0;entryDy=0;" edge="1" parent="1" source="CWYVo6-NOkt-uVapPHjS-12" target="CWYVo6-NOkt-uVapPHjS-13">
          <mxGeometry relative="1" as="geometry" />
        </mxCell>
        <mxCell id="CWYVo6-NOkt-uVapPHjS-12" value="board_drv_init" style="rounded=1;whiteSpace=wrap;html=1;" vertex="1" parent="1">
          <mxGeometry x="640" width="120" height="40" as="geometry" />
        </mxCell>
        <mxCell id="CWYVo6-NOkt-uVapPHjS-23" style="edgeStyle=orthogonalEdgeStyle;rounded=0;orthogonalLoop=1;jettySize=auto;html=1;exitX=0.5;exitY=1;exitDx=0;exitDy=0;entryX=0.5;entryY=0;entryDx=0;entryDy=0;" edge="1" parent="1" source="CWYVo6-NOkt-uVapPHjS-13" target="CWYVo6-NOkt-uVapPHjS-16">
          <mxGeometry relative="1" as="geometry" />
        </mxCell>
        <mxCell id="CWYVo6-NOkt-uVapPHjS-13" value="fsgare_create" style="rounded=1;whiteSpace=wrap;html=1;" vertex="1" parent="1">
          <mxGeometry x="640" y="80" width="120" height="40" as="geometry" />
        </mxCell>
        <mxCell id="CWYVo6-NOkt-uVapPHjS-14" value="板级驱动初始化" style="text;html=1;strokeColor=none;fillColor=none;align=center;verticalAlign=middle;whiteSpace=wrap;rounded=0;" vertex="1" parent="1">
          <mxGeometry x="760" width="160" height="40" as="geometry" />
        </mxCell>
        <mxCell id="CWYVo6-NOkt-uVapPHjS-15" value="创建共享内存" style="text;html=1;strokeColor=none;fillColor=none;align=center;verticalAlign=middle;whiteSpace=wrap;rounded=0;" vertex="1" parent="1">
          <mxGeometry x="760" y="80" width="160" height="40" as="geometry" />
        </mxCell>
        <mxCell id="CWYVo6-NOkt-uVapPHjS-24" style="edgeStyle=orthogonalEdgeStyle;rounded=0;orthogonalLoop=1;jettySize=auto;html=1;exitX=0.5;exitY=1;exitDx=0;exitDy=0;entryX=0.5;entryY=0;entryDx=0;entryDy=0;" edge="1" parent="1" source="CWYVo6-NOkt-uVapPHjS-16" target="CWYVo6-NOkt-uVapPHjS-18">
          <mxGeometry relative="1" as="geometry" />
        </mxCell>
        <mxCell id="CWYVo6-NOkt-uVapPHjS-16" value="app_set_event_name" style="rounded=1;whiteSpace=wrap;html=1;" vertex="1" parent="1">
          <mxGeometry x="640" y="160" width="120" height="40" as="geometry" />
        </mxCell>
        <mxCell id="CWYVo6-NOkt-uVapPHjS-17" value="设置event的名称及对应id" style="text;html=1;strokeColor=none;fillColor=none;align=center;verticalAlign=middle;whiteSpace=wrap;rounded=0;" vertex="1" parent="1">
          <mxGeometry x="760" y="160" width="160" height="40" as="geometry" />
        </mxCell>
        <mxCell id="CWYVo6-NOkt-uVapPHjS-27" style="edgeStyle=orthogonalEdgeStyle;rounded=0;orthogonalLoop=1;jettySize=auto;html=1;exitX=0.5;exitY=1;exitDx=0;exitDy=0;entryX=0.5;entryY=0;entryDx=0;entryDy=0;" edge="1" parent="1" source="CWYVo6-NOkt-uVapPHjS-18" target="CWYVo6-NOkt-uVapPHjS-25">
          <mxGeometry relative="1" as="geometry" />
        </mxCell>
        <mxCell id="CWYVo6-NOkt-uVapPHjS-18" value="nvram_conf_init" style="rounded=1;whiteSpace=wrap;html=1;" vertex="1" parent="1">
          <mxGeometry x="640" y="240" width="120" height="40" as="geometry" />
        </mxCell>
        <mxCell id="CWYVo6-NOkt-uVapPHjS-19" value="nvram初始化" style="text;html=1;strokeColor=none;fillColor=none;align=center;verticalAlign=middle;whiteSpace=wrap;rounded=0;" vertex="1" parent="1">
          <mxGeometry x="760" y="240" width="160" height="40" as="geometry" />
        </mxCell>
        <mxCell id="CWYVo6-NOkt-uVapPHjS-20" value="1. 从SD卡读取产品信息，包括did、key、uid、sn等（/dev/mtblock3）&lt;br&gt;2. 初始化板级硬件版本号及gpio&lt;br&gt;3. 根据cloud信息选择不同的网络服务及语音，如中国、日本等&lt;br&gt;4. 显示wifi账号、密码、绑定模式等参数" style="text;html=1;strokeColor=none;fillColor=none;align=left;verticalAlign=middle;whiteSpace=wrap;rounded=0;fontSize=10;" vertex="1" parent="1">
          <mxGeometry x="920" y="240" width="280" height="40" as="geometry" />
        </mxCell>
        <mxCell id="CWYVo6-NOkt-uVapPHjS-33" style="edgeStyle=orthogonalEdgeStyle;rounded=0;orthogonalLoop=1;jettySize=auto;html=1;exitX=0.5;exitY=1;exitDx=0;exitDy=0;entryX=0.5;entryY=0;entryDx=0;entryDy=0;" edge="1" parent="1" source="CWYVo6-NOkt-uVapPHjS-25" target="CWYVo6-NOkt-uVapPHjS-30">
          <mxGeometry relative="1" as="geometry" />
        </mxCell>
        <mxCell id="CWYVo6-NOkt-uVapPHjS-25" value="task_mng" style="rounded=1;whiteSpace=wrap;html=1;" vertex="1" parent="1">
          <mxGeometry x="640" y="320" width="120" height="40" as="geometry" />
        </mxCell>
        <mxCell id="CWYVo6-NOkt-uVapPHjS-28" value="1. 创建task_mng线程&lt;br&gt;2. 初始化wdt相关信息&lt;br&gt;3. 负责其余线程的激活与终止、喂狗相关动作" style="text;html=1;strokeColor=none;fillColor=none;align=left;verticalAlign=middle;whiteSpace=wrap;rounded=0;fontSize=10;" vertex="1" parent="1">
          <mxGeometry x="920" y="320" width="280" height="40" as="geometry" />
        </mxCell>
        <mxCell id="CWYVo6-NOkt-uVapPHjS-29" value="while(1)直到程序终止" style="text;html=1;strokeColor=none;fillColor=none;align=center;verticalAlign=middle;whiteSpace=wrap;rounded=0;" vertex="1" parent="1">
          <mxGeometry x="760" y="320" width="160" height="40" as="geometry" />
        </mxCell>
        <mxCell id="CWYVo6-NOkt-uVapPHjS-42" style="edgeStyle=orthogonalEdgeStyle;rounded=0;orthogonalLoop=1;jettySize=auto;html=1;exitX=0.5;exitY=1;exitDx=0;exitDy=0;" edge="1" parent="1" source="CWYVo6-NOkt-uVapPHjS-30" target="CWYVo6-NOkt-uVapPHjS-36">
          <mxGeometry relative="1" as="geometry" />
        </mxCell>
        <mxCell id="CWYVo6-NOkt-uVapPHjS-30" value="para_mng" style="rounded=1;whiteSpace=wrap;html=1;" vertex="1" parent="1">
          <mxGeometry x="640" y="400" width="120" height="40" as="geometry" />
        </mxCell>
        <mxCell id="CWYVo6-NOkt-uVapPHjS-31" value="1. 自身线程终止&amp;nbsp; &amp;nbsp; &amp;nbsp; &amp;nbsp; &amp;nbsp; &amp;nbsp; &amp;nbsp; &amp;nbsp; &amp;nbsp; &amp;nbsp;5. wifi配置获取&lt;br&gt;2. media配置获取&amp;nbsp; &amp;nbsp; &amp;nbsp; &amp;nbsp; &amp;nbsp; &amp;nbsp; &amp;nbsp; &amp;nbsp; 6. wifi配置设置&lt;br&gt;3. 外设配置获取&amp;nbsp; &amp;nbsp; &amp;nbsp; &amp;nbsp; &amp;nbsp; &amp;nbsp; &amp;nbsp; &amp;nbsp; &amp;nbsp; &amp;nbsp;7. 常规配置获取&lt;br&gt;4. 板级配置获取&amp;nbsp; &amp;nbsp; &amp;nbsp; &amp;nbsp; &amp;nbsp; &amp;nbsp; &amp;nbsp; &amp;nbsp; &amp;nbsp; &amp;nbsp;8. 常规配置设置&lt;br&gt;9. 安全区域设置&amp;nbsp; &amp;nbsp; &amp;nbsp; &amp;nbsp; &amp;nbsp; &amp;nbsp; &amp;nbsp; &amp;nbsp; &amp;nbsp; &amp;nbsp;10. 摔倒区域设置&lt;br&gt;11. dev 设备重置通知" style="text;html=1;strokeColor=none;fillColor=none;align=left;verticalAlign=middle;whiteSpace=wrap;rounded=0;fontSize=10;" vertex="1" parent="1">
          <mxGeometry x="920" y="400" width="280" height="40" as="geometry" />
        </mxCell>
        <mxCell id="CWYVo6-NOkt-uVapPHjS-32" value="while(1)直到程序终止" style="text;html=1;strokeColor=none;fillColor=none;align=center;verticalAlign=middle;whiteSpace=wrap;rounded=0;" vertex="1" parent="1">
          <mxGeometry x="760" y="400" width="160" height="40" as="geometry" />
        </mxCell>
        <mxCell id="CWYVo6-NOkt-uVapPHjS-43" style="edgeStyle=orthogonalEdgeStyle;rounded=0;orthogonalLoop=1;jettySize=auto;html=1;exitX=0.5;exitY=1;exitDx=0;exitDy=0;entryX=0.5;entryY=0;entryDx=0;entryDy=0;" edge="1" parent="1" source="CWYVo6-NOkt-uVapPHjS-36" target="CWYVo6-NOkt-uVapPHjS-39">
          <mxGeometry relative="1" as="geometry" />
        </mxCell>
        <mxCell id="CWYVo6-NOkt-uVapPHjS-36" value="med_mng" style="rounded=1;whiteSpace=wrap;html=1;" vertex="1" parent="1">
          <mxGeometry x="640" y="480" width="120" height="40" as="geometry" />
        </mxCell>
        <mxCell id="CWYVo6-NOkt-uVapPHjS-37" value="1. 自身线程终止&amp;nbsp; &amp;nbsp; &amp;nbsp; &amp;nbsp; &amp;nbsp; &amp;nbsp; &amp;nbsp; &amp;nbsp; &amp;nbsp;5. 主码流、子码流更新&lt;br&gt;2. 抓图&amp;nbsp; &amp;nbsp; &amp;nbsp; &amp;nbsp; &amp;nbsp; &amp;nbsp; &amp;nbsp; &amp;nbsp; &amp;nbsp; &amp;nbsp; &amp;nbsp; &amp;nbsp; &amp;nbsp; &amp;nbsp; &amp;nbsp; &amp;nbsp; 6. 音频播放&lt;br&gt;3. isp日夜模式切换&amp;nbsp; &amp;nbsp; &amp;nbsp; &amp;nbsp; &amp;nbsp; &amp;nbsp; &amp;nbsp;7. sys 媒体音、视频编码&lt;br&gt;4. para flip/mirror切换&amp;nbsp; &amp;nbsp; &amp;nbsp; &amp;nbsp; &amp;nbsp;8. dev 夜视" style="text;html=1;strokeColor=none;fillColor=none;align=left;verticalAlign=middle;whiteSpace=wrap;rounded=0;fontSize=10;" vertex="1" parent="1">
          <mxGeometry x="920" y="480" width="280" height="40" as="geometry" />
        </mxCell>
        <mxCell id="CWYVo6-NOkt-uVapPHjS-38" value="while(1)直到程序终止" style="text;html=1;strokeColor=none;fillColor=none;align=center;verticalAlign=middle;whiteSpace=wrap;rounded=0;" vertex="1" parent="1">
          <mxGeometry x="760" y="480" width="160" height="40" as="geometry" />
        </mxCell>
        <mxCell id="CWYVo6-NOkt-uVapPHjS-53" style="edgeStyle=orthogonalEdgeStyle;rounded=0;orthogonalLoop=1;jettySize=auto;html=1;exitX=0.5;exitY=1;exitDx=0;exitDy=0;entryX=0.5;entryY=0;entryDx=0;entryDy=0;" edge="1" parent="1" source="CWYVo6-NOkt-uVapPHjS-39" target="CWYVo6-NOkt-uVapPHjS-44">
          <mxGeometry relative="1" as="geometry" />
        </mxCell>
        <mxCell id="CWYVo6-NOkt-uVapPHjS-39" value="dev_mng" style="rounded=1;whiteSpace=wrap;html=1;" vertex="1" parent="1">
          <mxGeometry x="640" y="560" width="120" height="40" as="geometry" />
        </mxCell>
        <mxCell id="CWYVo6-NOkt-uVapPHjS-40" value="1. 自身线程结束&amp;nbsp; &amp;nbsp; &amp;nbsp; &amp;nbsp; &amp;nbsp; &amp;nbsp; &amp;nbsp; &amp;nbsp; &amp;nbsp;4. 日夜模式切换&amp;nbsp; &amp;nbsp;&amp;nbsp;&lt;br&gt;2. 启动wifi&amp;nbsp; &amp;nbsp; &amp;nbsp; &amp;nbsp; &amp;nbsp; &amp;nbsp; &amp;nbsp; &amp;nbsp; &amp;nbsp; &amp;nbsp; &amp;nbsp; &amp;nbsp; &amp;nbsp; &amp;nbsp;5. sys系统状态通知&lt;br&gt;3. 设置led状态&amp;nbsp; &amp;nbsp; &amp;nbsp; &amp;nbsp; &amp;nbsp; &amp;nbsp; &amp;nbsp; &amp;nbsp; &amp;nbsp; &amp;nbsp; 6. para修改网络设置模式" style="text;html=1;strokeColor=none;fillColor=none;align=left;verticalAlign=middle;whiteSpace=wrap;rounded=0;fontSize=10;" vertex="1" parent="1">
          <mxGeometry x="920" y="560" width="280" height="40" as="geometry" />
        </mxCell>
        <mxCell id="CWYVo6-NOkt-uVapPHjS-41" value="while(1)直到程序终止" style="text;html=1;strokeColor=none;fillColor=none;align=center;verticalAlign=middle;whiteSpace=wrap;rounded=0;" vertex="1" parent="1">
          <mxGeometry x="760" y="560" width="160" height="40" as="geometry" />
        </mxCell>
        <mxCell id="CWYVo6-NOkt-uVapPHjS-54" style="edgeStyle=orthogonalEdgeStyle;rounded=0;orthogonalLoop=1;jettySize=auto;html=1;exitX=0.5;exitY=1;exitDx=0;exitDy=0;entryX=0.5;entryY=0;entryDx=0;entryDy=0;" edge="1" parent="1" source="CWYVo6-NOkt-uVapPHjS-44" target="CWYVo6-NOkt-uVapPHjS-45">
          <mxGeometry relative="1" as="geometry" />
        </mxCell>
        <mxCell id="CWYVo6-NOkt-uVapPHjS-44" value="cloud_mng" style="rounded=1;whiteSpace=wrap;html=1;" vertex="1" parent="1">
          <mxGeometry x="640" y="640" width="120" height="40" as="geometry" />
        </mxCell>
        <mxCell id="CWYVo6-NOkt-uVapPHjS-55" style="edgeStyle=orthogonalEdgeStyle;rounded=0;orthogonalLoop=1;jettySize=auto;html=1;exitX=0.5;exitY=1;exitDx=0;exitDy=0;entryX=0.5;entryY=0;entryDx=0;entryDy=0;" edge="1" parent="1" source="CWYVo6-NOkt-uVapPHjS-45" target="CWYVo6-NOkt-uVapPHjS-46">
          <mxGeometry relative="1" as="geometry" />
        </mxCell>
        <mxCell id="CWYVo6-NOkt-uVapPHjS-45" value="iot_mng" style="rounded=1;whiteSpace=wrap;html=1;" vertex="1" parent="1">
          <mxGeometry x="640" y="720" width="120" height="40" as="geometry" />
        </mxCell>
        <mxCell id="CWYVo6-NOkt-uVapPHjS-58" style="edgeStyle=orthogonalEdgeStyle;rounded=0;orthogonalLoop=1;jettySize=auto;html=1;exitX=0.5;exitY=1;exitDx=0;exitDy=0;entryX=0.5;entryY=0;entryDx=0;entryDy=0;" edge="1" parent="1" source="CWYVo6-NOkt-uVapPHjS-46" target="CWYVo6-NOkt-uVapPHjS-56">
          <mxGeometry relative="1" as="geometry" />
        </mxCell>
        <mxCell id="CWYVo6-NOkt-uVapPHjS-46" value="web_mng" style="rounded=1;whiteSpace=wrap;html=1;" vertex="1" parent="1">
          <mxGeometry x="640" y="800" width="120" height="40" as="geometry" />
        </mxCell>
        <mxCell id="CWYVo6-NOkt-uVapPHjS-47" value="1. 自身线程结束&amp;nbsp; &amp;nbsp; &amp;nbsp; &amp;nbsp; &amp;nbsp; &amp;nbsp; &amp;nbsp; &amp;nbsp; &amp;nbsp;2. 刷新token定时器&amp;nbsp; &amp;nbsp; &amp;nbsp; &amp;nbsp; &amp;nbsp; &amp;nbsp; 3. 同步时间&amp;nbsp;&lt;br&gt;4. 绑定&amp;nbsp; &amp;nbsp; &amp;nbsp; &amp;nbsp; &amp;nbsp; &amp;nbsp; &amp;nbsp; &amp;nbsp; &amp;nbsp; &amp;nbsp; &amp;nbsp; &amp;nbsp; &amp;nbsp; &amp;nbsp; &amp;nbsp; &amp;nbsp;5. 上线&amp;nbsp; &amp;nbsp; &amp;nbsp; &amp;nbsp; &amp;nbsp; &amp;nbsp; &amp;nbsp; &amp;nbsp; &amp;nbsp; &amp;nbsp; &amp;nbsp; &amp;nbsp; &amp;nbsp; &amp;nbsp; &amp;nbsp; &amp;nbsp; 6. kvs的token刷新&lt;br&gt;7. jpg上传&amp;nbsp; &amp;nbsp; &amp;nbsp; &amp;nbsp; &amp;nbsp; &amp;nbsp; &amp;nbsp; &amp;nbsp; &amp;nbsp; &amp;nbsp; &amp;nbsp; &amp;nbsp; &amp;nbsp; 8.&amp;nbsp; 通知事件&amp;nbsp; &amp;nbsp; &amp;nbsp; &amp;nbsp; &amp;nbsp; &amp;nbsp; &amp;nbsp; &amp;nbsp; &amp;nbsp; &amp;nbsp; &amp;nbsp; &amp;nbsp; 9. video验证&lt;br&gt;10. 视频上传&amp;nbsp; &amp;nbsp; &amp;nbsp; &amp;nbsp; &amp;nbsp; &amp;nbsp; &amp;nbsp; &amp;nbsp; &amp;nbsp; &amp;nbsp; &amp;nbsp; 11. OTA升级&amp;nbsp; &amp;nbsp; &amp;nbsp; &amp;nbsp; &amp;nbsp; &amp;nbsp; &amp;nbsp; &amp;nbsp; &amp;nbsp; &amp;nbsp; &amp;nbsp; &amp;nbsp;12. 远程log&lt;br&gt;13. 远程log上传" style="text;html=1;strokeColor=none;fillColor=none;align=left;verticalAlign=middle;whiteSpace=wrap;rounded=0;fontSize=10;" vertex="1" parent="1">
          <mxGeometry x="920" y="640" width="360" height="40" as="geometry" />
        </mxCell>
        <mxCell id="CWYVo6-NOkt-uVapPHjS-48" value="while(1)直到程序终止" style="text;html=1;strokeColor=none;fillColor=none;align=center;verticalAlign=middle;whiteSpace=wrap;rounded=0;" vertex="1" parent="1">
          <mxGeometry x="760" y="640" width="160" height="40" as="geometry" />
        </mxCell>
        <mxCell id="CWYVo6-NOkt-uVapPHjS-49" value="1. 自身线程结束&amp;nbsp;&lt;br&gt;2. sd卡状态报告&lt;br&gt;3. cloud 设备上线通知" style="text;html=1;strokeColor=none;fillColor=none;align=left;verticalAlign=middle;whiteSpace=wrap;rounded=0;fontSize=10;" vertex="1" parent="1">
          <mxGeometry x="920" y="720" width="280" height="40" as="geometry" />
        </mxCell>
        <mxCell id="CWYVo6-NOkt-uVapPHjS-50" value="while(1)直到程序终止" style="text;html=1;strokeColor=none;fillColor=none;align=center;verticalAlign=middle;whiteSpace=wrap;rounded=0;" vertex="1" parent="1">
          <mxGeometry x="760" y="720" width="160" height="40" as="geometry" />
        </mxCell>
        <mxCell id="CWYVo6-NOkt-uVapPHjS-51" value="1. 自身线程结束&amp;nbsp; &amp;nbsp; &amp;nbsp; &amp;nbsp; &amp;nbsp; &amp;nbsp; &amp;nbsp; &amp;nbsp; &amp;nbsp;4. web视频停止上传&amp;nbsp; &amp;nbsp;&amp;nbsp;&lt;br&gt;2. cloud 设备上线通知&amp;nbsp; &amp;nbsp; &amp;nbsp; &amp;nbsp;5. web 看CVR事件开始&lt;br&gt;3. web视频上传&amp;nbsp; &amp;nbsp; &amp;nbsp; &amp;nbsp; &amp;nbsp; &amp;nbsp; &amp;nbsp; &amp;nbsp; &amp;nbsp; 6. web看CVR事件结束" style="text;html=1;strokeColor=none;fillColor=none;align=left;verticalAlign=middle;whiteSpace=wrap;rounded=0;fontSize=10;" vertex="1" parent="1">
          <mxGeometry x="920" y="800" width="280" height="40" as="geometry" />
        </mxCell>
        <mxCell id="CWYVo6-NOkt-uVapPHjS-52" value="while(1)直到程序终止" style="text;html=1;strokeColor=none;fillColor=none;align=center;verticalAlign=middle;whiteSpace=wrap;rounded=0;" vertex="1" parent="1">
          <mxGeometry x="760" y="800" width="160" height="40" as="geometry" />
        </mxCell>
        <mxCell id="CWYVo6-NOkt-uVapPHjS-59" style="edgeStyle=orthogonalEdgeStyle;rounded=0;orthogonalLoop=1;jettySize=auto;html=1;exitX=0.5;exitY=1;exitDx=0;exitDy=0;entryX=0.5;entryY=0;entryDx=0;entryDy=0;" edge="1" parent="1" source="CWYVo6-NOkt-uVapPHjS-56" target="CWYVo6-NOkt-uVapPHjS-57">
          <mxGeometry relative="1" as="geometry" />
        </mxCell>
        <mxCell id="CWYVo6-NOkt-uVapPHjS-56" value="stor_mng" style="rounded=1;whiteSpace=wrap;html=1;" vertex="1" parent="1">
          <mxGeometry x="640" y="880" width="120" height="40" as="geometry" />
        </mxCell>
        <mxCell id="CWYVo6-NOkt-uVapPHjS-61" style="edgeStyle=orthogonalEdgeStyle;rounded=0;orthogonalLoop=1;jettySize=auto;html=1;exitX=0.5;exitY=1;exitDx=0;exitDy=0;entryX=0.5;entryY=0;entryDx=0;entryDy=0;" edge="1" parent="1" source="CWYVo6-NOkt-uVapPHjS-57" target="CWYVo6-NOkt-uVapPHjS-60">
          <mxGeometry relative="1" as="geometry" />
        </mxCell>
        <mxCell id="CWYVo6-NOkt-uVapPHjS-57" value="algo_mng" style="rounded=1;whiteSpace=wrap;html=1;" vertex="1" parent="1">
          <mxGeometry x="640" y="960" width="120" height="40" as="geometry" />
        </mxCell>
        <mxCell id="CWYVo6-NOkt-uVapPHjS-60" value="sys_mng" style="rounded=1;whiteSpace=wrap;html=1;" vertex="1" parent="1">
          <mxGeometry x="640" y="1040" width="120" height="40" as="geometry" />
        </mxCell>
        <mxCell id="CWYVo6-NOkt-uVapPHjS-62" value="1. 自身线程结束&amp;nbsp; &amp;nbsp; &amp;nbsp; &amp;nbsp; &amp;nbsp; &amp;nbsp; &amp;nbsp; &amp;nbsp; &amp;nbsp;4. sys OTA状态 通知，主要是停止录像&amp;nbsp;&amp;nbsp;&lt;br&gt;2. sd卡状态处理&amp;nbsp; &amp;nbsp; &amp;nbsp; &amp;nbsp; &amp;nbsp; &amp;nbsp; &amp;nbsp; &amp;nbsp; &amp;nbsp;5. 录像相关处理&lt;br&gt;3. sd卡格式化&amp;nbsp; &amp;nbsp; &amp;nbsp; &amp;nbsp; &amp;nbsp; &amp;nbsp; &amp;nbsp; &amp;nbsp; &amp;nbsp; &amp;nbsp; &amp;nbsp;" style="text;html=1;strokeColor=none;fillColor=none;align=left;verticalAlign=middle;whiteSpace=wrap;rounded=0;fontSize=10;" vertex="1" parent="1">
          <mxGeometry x="920" y="880" width="300" height="40" as="geometry" />
        </mxCell>
        <mxCell id="CWYVo6-NOkt-uVapPHjS-63" value="while(1)直到程序终止" style="text;html=1;strokeColor=none;fillColor=none;align=center;verticalAlign=middle;whiteSpace=wrap;rounded=0;" vertex="1" parent="1">
          <mxGeometry x="760" y="880" width="160" height="40" as="geometry" />
        </mxCell>
        <mxCell id="CWYVo6-NOkt-uVapPHjS-65" value="while(1)直到程序终止" style="text;html=1;strokeColor=none;fillColor=none;align=center;verticalAlign=middle;whiteSpace=wrap;rounded=0;" vertex="1" parent="1">
          <mxGeometry x="760" y="960" width="160" height="40" as="geometry" />
        </mxCell>
        <mxCell id="CWYVo6-NOkt-uVapPHjS-66" value="1. 自身线程结束&amp;nbsp; &amp;nbsp; &amp;nbsp; &amp;nbsp; &amp;nbsp; &amp;nbsp; &amp;nbsp; &amp;nbsp; &amp;nbsp;5. para常规配置改变&amp;nbsp; &amp;nbsp;&amp;nbsp;&lt;br&gt;2. 冷静期更新&amp;nbsp; &amp;nbsp; &amp;nbsp; &amp;nbsp; &amp;nbsp; &amp;nbsp; &amp;nbsp; &amp;nbsp; &amp;nbsp; &amp;nbsp; &amp;nbsp;6. sys状态通知&lt;br&gt;3. para安全区改变&amp;nbsp; &amp;nbsp; &amp;nbsp; &amp;nbsp; &amp;nbsp; &amp;nbsp; &amp;nbsp; 7. dev夜视状态通知&lt;br&gt;4. para摔倒区改变" style="text;html=1;strokeColor=none;fillColor=none;align=left;verticalAlign=middle;whiteSpace=wrap;rounded=0;fontSize=10;" vertex="1" parent="1">
          <mxGeometry x="920" y="960" width="280" height="40" as="geometry" />
        </mxCell>
        <mxCell id="CWYVo6-NOkt-uVapPHjS-67" value="1. 自身线程结束&lt;br&gt;2. sys ota状态通知&amp;nbsp; &amp;nbsp; &amp;nbsp; &amp;nbsp; &amp;nbsp; &amp;nbsp; &amp;nbsp;" style="text;html=1;strokeColor=none;fillColor=none;align=left;verticalAlign=middle;whiteSpace=wrap;rounded=0;fontSize=10;" vertex="1" parent="1">
          <mxGeometry x="920" y="1040" width="300" height="40" as="geometry" />
        </mxCell>
        <mxCell id="CWYVo6-NOkt-uVapPHjS-68" value="while(1)直到程序终止" style="text;html=1;strokeColor=none;fillColor=none;align=center;verticalAlign=middle;whiteSpace=wrap;rounded=0;" vertex="1" parent="1">
          <mxGeometry x="760" y="1040" width="160" height="40" as="geometry" />
        </mxCell>
        <mxCell id="CWYVo6-NOkt-uVapPHjS-70" value="1. wifi ①初始化 ②更新账号密码 ③设置装置模式AP（中心节点）、STA（其中一个节点）&amp;nbsp;" style="text;html=1;strokeColor=none;fillColor=none;align=left;verticalAlign=middle;whiteSpace=wrap;rounded=0;fontSize=10;" vertex="1" parent="1">
          <mxGeometry x="320" y="560" width="280" height="40" as="geometry" />
        </mxCell>
      </root>
    </mxGraphModel>
  </diagram>
</mxfile>
